<mxfile host="65bd71144e">
    <diagram id="Q42hH5BBxAh-hWKbNnfA" name="Page-1">
        <mxGraphModel dx="840" dy="693" grid="1" gridSize="10" guides="1" tooltips="1" connect="1" arrows="1" fold="1" page="1" pageScale="1" pageWidth="1169" pageHeight="827" math="0" shadow="0">
            <root>
                <mxCell id="0"/>
                <mxCell id="1" parent="0"/>
                <mxCell id="38" value="" style="group" vertex="1" connectable="0" parent="1">
                    <mxGeometry x="40" y="390" width="1080" height="410" as="geometry"/>
                </mxCell>
                <mxCell id="23" value="" style="rounded=0;whiteSpace=wrap;html=1;shadow=1;" vertex="1" parent="38">
                    <mxGeometry width="1080" height="410" as="geometry"/>
                </mxCell>
                <mxCell id="24" value="&lt;b&gt;Tabelas Complementares&lt;/b&gt;" style="text;html=1;strokeColor=none;fillColor=none;align=center;verticalAlign=middle;whiteSpace=wrap;rounded=0;shadow=1;" vertex="1" parent="38">
                    <mxGeometry width="160" height="30" as="geometry"/>
                </mxCell>
                <mxCell id="26" value="&lt;b&gt;Orgão Unidade&lt;/b&gt;" style="rounded=1;whiteSpace=wrap;html=1;shadow=1;fillColor=#f8cecc;gradientColor=#ea6b66;strokeColor=#b85450;" vertex="1" parent="38">
                    <mxGeometry x="940" y="170" width="120" height="60" as="geometry"/>
                </mxCell>
                <mxCell id="36" value="&lt;b&gt;Tipo Contratação&lt;/b&gt;&lt;br&gt;Tipo de Lititação" style="rounded=1;whiteSpace=wrap;html=1;shadow=1;fillColor=#f8cecc;gradientColor=#ea6b66;strokeColor=#b85450;" vertex="1" parent="38">
                    <mxGeometry x="940" y="30" width="120" height="60" as="geometry"/>
                </mxCell>
                <mxCell id="37" value="&lt;b&gt;Credor&lt;/b&gt;" style="rounded=1;whiteSpace=wrap;html=1;shadow=1;fillColor=#f8cecc;gradientColor=#ea6b66;strokeColor=#b85450;" vertex="1" parent="38">
                    <mxGeometry x="940" y="100" width="120" height="60" as="geometry"/>
                </mxCell>
                <mxCell id="25" value="&lt;b&gt;Grupo&lt;/b&gt;" style="rounded=1;whiteSpace=wrap;html=1;shadow=1;fillColor=#f8cecc;gradientColor=#ea6b66;strokeColor=#b85450;" vertex="1" parent="38">
                    <mxGeometry x="328" y="100" width="120" height="60" as="geometry"/>
                </mxCell>
                <mxCell id="32" value="&lt;b&gt;Modalidade&lt;/b&gt;" style="rounded=1;whiteSpace=wrap;html=1;shadow=1;fillColor=#f8cecc;gradientColor=#ea6b66;strokeColor=#b85450;" vertex="1" parent="38">
                    <mxGeometry x="328" y="170" width="120" height="60" as="geometry"/>
                </mxCell>
                <mxCell id="33" value="&lt;b&gt;Elemento&lt;/b&gt;" style="rounded=1;whiteSpace=wrap;html=1;shadow=1;fillColor=#f8cecc;gradientColor=#ea6b66;strokeColor=#b85450;" vertex="1" parent="38">
                    <mxGeometry x="328" y="240" width="120" height="60" as="geometry"/>
                </mxCell>
                <mxCell id="34" value="&lt;b&gt;&lt;strike&gt;SubElemento&lt;/strike&gt;&lt;/b&gt;" style="rounded=1;whiteSpace=wrap;html=1;shadow=1;fillColor=#f5f5f5;gradientColor=#b3b3b3;strokeColor=#666666;" vertex="1" parent="38">
                    <mxGeometry x="328" y="310" width="120" height="60" as="geometry"/>
                </mxCell>
                <mxCell id="21" value="" style="rounded=0;whiteSpace=wrap;html=1;shadow=1;" vertex="1" parent="1">
                    <mxGeometry x="40" y="120" width="1080" height="260" as="geometry"/>
                </mxCell>
                <mxCell id="13" style="edgeStyle=none;html=1;exitX=1;exitY=0.5;exitDx=0;exitDy=0;entryX=0;entryY=0.5;entryDx=0;entryDy=0;" edge="1" parent="1" source="2" target="3">
                    <mxGeometry relative="1" as="geometry"/>
                </mxCell>
                <mxCell id="2" value="&lt;b&gt;Dotação Inicial&lt;/b&gt;" style="rounded=1;whiteSpace=wrap;html=1;shadow=1;fillColor=#ffcd28;gradientColor=#ffa500;strokeColor=#d79b00;" vertex="1" parent="1">
                    <mxGeometry x="80" y="260" width="120" height="60" as="geometry"/>
                </mxCell>
                <mxCell id="14" style="edgeStyle=none;html=1;exitX=1;exitY=0.5;exitDx=0;exitDy=0;entryX=0;entryY=0.5;entryDx=0;entryDy=0;" edge="1" parent="1" source="3" target="8">
                    <mxGeometry relative="1" as="geometry"/>
                </mxCell>
                <mxCell id="3" value="&lt;b&gt;Créditos Adicionais&lt;/b&gt;" style="rounded=1;whiteSpace=wrap;html=1;shadow=1;fillColor=#ffcd28;gradientColor=#ffa500;strokeColor=#d79b00;" vertex="1" parent="1">
                    <mxGeometry x="240" y="260" width="120" height="60" as="geometry"/>
                </mxCell>
                <mxCell id="4" value="NÃO IMPLEMENTADO" style="rounded=0;whiteSpace=wrap;html=1;shadow=1;fillColor=#f8cecc;gradientColor=#ea6b66;strokeColor=#b85450;" vertex="1" parent="1">
                    <mxGeometry x="40" y="90" width="150" height="20" as="geometry"/>
                </mxCell>
                <mxCell id="5" value="DESENVOLVENDO" style="rounded=0;whiteSpace=wrap;html=1;shadow=1;fillColor=#d5e8d4;gradientColor=#97d077;strokeColor=#82b366;" vertex="1" parent="1">
                    <mxGeometry x="200" y="90" width="150" height="20" as="geometry"/>
                </mxCell>
                <mxCell id="6" value="HOMOLOGAÇÃO" style="rounded=0;whiteSpace=wrap;html=1;shadow=1;fillColor=#ffcd28;gradientColor=#ffa500;strokeColor=#d79b00;" vertex="1" parent="1">
                    <mxGeometry x="360" y="90" width="150" height="20" as="geometry"/>
                </mxCell>
                <mxCell id="7" value="FINALIZADO" style="rounded=0;whiteSpace=wrap;html=1;shadow=1;fillColor=#dae8fc;gradientColor=#7ea6e0;strokeColor=#6c8ebf;" vertex="1" parent="1">
                    <mxGeometry x="520" y="90" width="150" height="20" as="geometry"/>
                </mxCell>
                <mxCell id="15" style="edgeStyle=none;html=1;exitX=1;exitY=0.5;exitDx=0;exitDy=0;entryX=0;entryY=0.5;entryDx=0;entryDy=0;" edge="1" parent="1" source="8" target="9">
                    <mxGeometry relative="1" as="geometry"/>
                </mxCell>
                <mxCell id="19" style="edgeStyle=none;html=1;exitX=0.5;exitY=0;exitDx=0;exitDy=0;entryX=0.5;entryY=1;entryDx=0;entryDy=0;" edge="1" parent="1" source="8" target="11">
                    <mxGeometry relative="1" as="geometry"/>
                </mxCell>
                <mxCell id="8" value="&lt;b&gt;Empenhado&lt;/b&gt;" style="rounded=1;whiteSpace=wrap;html=1;shadow=1;fillColor=#d5e8d4;gradientColor=#97d077;strokeColor=#82b366;" vertex="1" parent="1">
                    <mxGeometry x="400" y="260" width="120" height="60" as="geometry"/>
                </mxCell>
                <mxCell id="16" style="edgeStyle=none;html=1;exitX=1;exitY=0.5;exitDx=0;exitDy=0;entryX=0;entryY=0.5;entryDx=0;entryDy=0;" edge="1" parent="1" source="9" target="10">
                    <mxGeometry relative="1" as="geometry"/>
                </mxCell>
                <mxCell id="20" style="edgeStyle=none;html=1;exitX=0.5;exitY=0;exitDx=0;exitDy=0;entryX=0.5;entryY=1;entryDx=0;entryDy=0;" edge="1" parent="1" source="9" target="12">
                    <mxGeometry relative="1" as="geometry"/>
                </mxCell>
                <mxCell id="9" value="&lt;b&gt;Liquidado&lt;/b&gt;" style="rounded=1;whiteSpace=wrap;html=1;shadow=1;fillColor=#f8cecc;gradientColor=#ea6b66;strokeColor=#b85450;" vertex="1" parent="1">
                    <mxGeometry x="560" y="260" width="120" height="60" as="geometry"/>
                </mxCell>
                <mxCell id="10" value="&lt;b&gt;Pago&lt;/b&gt;" style="rounded=1;whiteSpace=wrap;html=1;shadow=1;fillColor=#f8cecc;gradientColor=#ea6b66;strokeColor=#b85450;" vertex="1" parent="1">
                    <mxGeometry x="720" y="260" width="120" height="60" as="geometry"/>
                </mxCell>
                <mxCell id="11" value="&lt;b&gt;RP Não Processado&lt;/b&gt;" style="rounded=1;whiteSpace=wrap;html=1;shadow=1;fillColor=#f8cecc;gradientColor=#ea6b66;strokeColor=#b85450;" vertex="1" parent="1">
                    <mxGeometry x="400" y="160" width="120" height="60" as="geometry"/>
                </mxCell>
                <mxCell id="12" value="&lt;b&gt;RP Processado&lt;/b&gt;" style="rounded=1;whiteSpace=wrap;html=1;shadow=1;fillColor=#f8cecc;gradientColor=#ea6b66;strokeColor=#b85450;" vertex="1" parent="1">
                    <mxGeometry x="560" y="160" width="120" height="60" as="geometry"/>
                </mxCell>
                <mxCell id="22" value="&lt;b&gt;Tabelas Principais&lt;/b&gt;" style="text;html=1;strokeColor=none;fillColor=none;align=center;verticalAlign=middle;whiteSpace=wrap;rounded=0;shadow=1;" vertex="1" parent="1">
                    <mxGeometry x="40" y="120" width="120" height="30" as="geometry"/>
                </mxCell>
                <mxCell id="27" value="&lt;b&gt;Função&lt;/b&gt;" style="rounded=1;whiteSpace=wrap;html=1;shadow=1;fillColor=#f8cecc;gradientColor=#ea6b66;strokeColor=#b85450;" vertex="1" parent="1">
                    <mxGeometry x="60" y="420" width="120" height="60" as="geometry"/>
                </mxCell>
                <mxCell id="28" value="&lt;b&gt;Subfunção&lt;/b&gt;" style="rounded=1;whiteSpace=wrap;html=1;shadow=1;fillColor=#f8cecc;gradientColor=#ea6b66;strokeColor=#b85450;" vertex="1" parent="1">
                    <mxGeometry x="60" y="490" width="120" height="60" as="geometry"/>
                </mxCell>
                <mxCell id="29" value="&lt;b&gt;Programa&lt;/b&gt;" style="rounded=1;whiteSpace=wrap;html=1;shadow=1;fillColor=#f8cecc;gradientColor=#ea6b66;strokeColor=#b85450;" vertex="1" parent="1">
                    <mxGeometry x="60" y="560" width="120" height="60" as="geometry"/>
                </mxCell>
                <mxCell id="30" value="&lt;b&gt;Ação&lt;/b&gt;" style="rounded=1;whiteSpace=wrap;html=1;shadow=1;fillColor=#f8cecc;gradientColor=#ea6b66;strokeColor=#b85450;" vertex="1" parent="1">
                    <mxGeometry x="60" y="630" width="120" height="60" as="geometry"/>
                </mxCell>
                <mxCell id="31" value="&lt;b&gt;Categoria&lt;/b&gt;" style="rounded=1;whiteSpace=wrap;html=1;shadow=1;fillColor=#f8cecc;gradientColor=#ea6b66;strokeColor=#b85450;" vertex="1" parent="1">
                    <mxGeometry x="367" y="420" width="120" height="60" as="geometry"/>
                </mxCell>
                <mxCell id="35" value="&lt;b&gt;Fonte&lt;/b&gt;" style="rounded=1;whiteSpace=wrap;html=1;shadow=1;fillColor=#f8cecc;gradientColor=#ea6b66;strokeColor=#b85450;" vertex="1" parent="1">
                    <mxGeometry x="673" y="420" width="120" height="60" as="geometry"/>
                </mxCell>
                <mxCell id="39" value="&lt;b&gt;&lt;font style=&quot;font-size: 16px;&quot;&gt;PROJETO: ATUALIZAÇÂO BASE DO PORTAL DA TRANSPARÊNCIA COM DADOS DA BASE DO&amp;nbsp; SIAFIM RECIFE&lt;/font&gt;&lt;/b&gt;" style="rounded=0;whiteSpace=wrap;html=1;shadow=1;" vertex="1" parent="1">
                    <mxGeometry x="40" y="10" width="1080" height="60" as="geometry"/>
                </mxCell>
                <mxCell id="41" value="Data Atualização: 01-11-2024" style="rounded=0;whiteSpace=wrap;html=1;shadow=1;fontSize=16;fillColor=default;" vertex="1" parent="1">
                    <mxGeometry x="900" y="80" width="220" height="30" as="geometry"/>
                </mxCell>
            </root>
        </mxGraphModel>
    </diagram>
</mxfile>